<svg width="181" height="62" viewBox="0 0 181 62" fill="none" xmlns="http://www.w3.org/2000/svg">
<rect width="180.142" height="61.2482" rx="3" fill="black"/>
<path d="M63.9137 44.5019L62.1863 40.0632H55.142L53.4594 44.5019H51.1039L57.4303 28.6077H59.9653L66.2917 44.5019H63.9137ZM58.6417 30.8944L55.9272 38.0232H61.4011L58.6417 30.8944ZM70.2934 48.7612H68.2071V33.719H70.2486V35.4003C70.5627 34.8324 71.0338 34.3691 71.6619 34.0104C72.2901 33.6517 73.0229 33.4724 73.8605 33.4724C75.4159 33.4724 76.6273 34.0029 77.4947 35.064C78.3772 36.1251 78.8183 37.4702 78.8183 39.0992C78.8183 40.7432 78.3622 42.1032 77.4499 43.1792C76.5525 44.2553 75.3336 44.7933 73.7931 44.7933C73.0005 44.7933 72.2975 44.6289 71.6844 44.3001C71.0712 43.9713 70.6075 43.5528 70.2934 43.0447V48.7612ZM76.6647 39.0992C76.6647 38.0082 76.3731 37.1115 75.7898 36.4091C75.2214 35.6917 74.4512 35.333 73.4791 35.333C72.5219 35.333 71.7442 35.6917 71.1459 36.4091C70.5627 37.1115 70.271 38.0082 70.271 39.0992C70.271 40.2201 70.5627 41.1392 71.1459 41.8566C71.7442 42.559 72.5219 42.9102 73.4791 42.9102C74.4363 42.9102 75.2065 42.559 75.7898 41.8566C76.3731 41.1392 76.6647 40.2201 76.6647 39.0992ZM83.5918 48.7612H81.5054V33.719H83.5469V35.4003C83.861 34.8324 84.3321 34.3691 84.9602 34.0104C85.5884 33.6517 86.3212 33.4724 87.1588 33.4724C88.7142 33.4724 89.9256 34.0029 90.7931 35.064C91.6755 36.1251 92.1167 37.4702 92.1167 39.0992C92.1167 40.7432 91.6605 42.1032 90.7482 43.1792C89.8508 44.2553 88.6319 44.7933 87.0915 44.7933C86.2988 44.7933 85.5959 44.6289 84.9827 44.3001C84.3695 43.9713 83.9058 43.5528 83.5918 43.0447V48.7612ZM89.963 39.0992C89.963 38.0082 89.6714 37.1115 89.0881 36.4091C88.5197 35.6917 87.7495 35.333 86.7774 35.333C85.8202 35.333 85.0425 35.6917 84.4442 36.4091C83.861 37.1115 83.5693 38.0082 83.5693 39.0992C83.5693 40.2201 83.861 41.1392 84.4442 41.8566C85.0425 42.559 85.8202 42.9102 86.7774 42.9102C87.7346 42.9102 88.5048 42.559 89.0881 41.8566C89.6714 41.1392 89.963 40.2201 89.963 39.0992ZM110.777 32.217L108.803 32.9119C108.698 32.2245 108.362 31.6042 107.793 31.0513C107.225 30.4834 106.44 30.1994 105.438 30.1994C104.555 30.1994 103.823 30.4535 103.239 30.9616C102.655 31.4697 102.364 32.0974 102.364 32.8447C102.364 33.4275 102.536 33.9207 102.88 34.3243C103.239 34.7278 103.748 35.0043 104.406 35.1537L106.784 35.6693C108.1 35.9533 109.117 36.4913 109.835 37.2834C110.553 38.0605 110.912 39.0095 110.912 40.1304C110.912 41.4157 110.403 42.5216 109.386 43.4482C108.369 44.3748 107.046 44.8381 105.415 44.8381C103.636 44.8381 102.237 44.3748 101.22 43.4482C100.218 42.5067 99.6344 41.3933 99.4699 40.108L101.579 39.4355C101.668 40.392 102.042 41.199 102.7 41.8566C103.359 42.5142 104.256 42.843 105.393 42.843C106.44 42.843 107.247 42.6038 107.816 42.1256C108.384 41.6473 108.668 41.0421 108.668 40.3098C108.668 39.712 108.466 39.1964 108.063 38.7629C107.659 38.3146 107.068 38.0082 106.29 37.8438L104.024 37.3506C102.842 37.0966 101.9 36.5959 101.197 35.8487C100.494 35.1014 100.143 34.1524 100.143 33.0016C100.143 31.7462 100.651 30.6478 101.668 29.7062C102.7 28.7497 103.942 28.2715 105.393 28.2715C107.023 28.2715 108.272 28.6675 109.139 29.4596C110.007 30.2517 110.553 31.1708 110.777 32.217ZM116.318 30.3115V33.719H118.651V35.6245H116.318V41.2289C116.318 41.737 116.43 42.1107 116.655 42.3498C116.894 42.5889 117.283 42.7085 117.821 42.7085C118.135 42.7085 118.412 42.6786 118.651 42.6188V44.4122C118.292 44.5467 117.814 44.614 117.216 44.614C116.288 44.614 115.556 44.3449 115.017 43.8069C114.479 43.2689 114.209 42.5142 114.209 41.5427V35.6245H112.146V33.719H112.729C113.282 33.719 113.694 33.5695 113.963 33.2706C114.247 32.9568 114.389 32.5533 114.389 32.0601V30.3115H116.318ZM123.577 41.9463C124.235 42.6188 125.035 42.955 125.978 42.955C126.92 42.955 127.713 42.6188 128.356 41.9463C129.014 41.2588 129.343 40.3098 129.343 39.0992C129.343 37.9036 129.014 36.9695 128.356 36.297C127.713 35.6095 126.92 35.2658 125.978 35.2658C125.035 35.2658 124.235 35.6095 123.577 36.297C122.934 36.9695 122.613 37.9036 122.613 39.0992C122.613 40.3098 122.934 41.2588 123.577 41.9463ZM122.007 35.0192C123.054 33.9282 124.377 33.3827 125.978 33.3827C127.578 33.3827 128.894 33.9282 129.926 35.0192C130.973 36.0952 131.496 37.4552 131.496 39.0992C131.496 40.7581 130.98 42.1331 129.949 43.2241C128.917 44.3001 127.593 44.8381 125.978 44.8381C124.362 44.8381 123.039 44.3001 122.007 43.2241C120.975 42.1331 120.459 40.7581 120.459 39.0992C120.459 37.4552 120.975 36.0952 122.007 35.0192ZM140.185 33.6069V35.8487C139.871 35.8038 139.564 35.7814 139.265 35.7814C137.291 35.7814 136.304 36.8873 136.304 39.0992V44.5019H134.195V33.719H136.259V35.6021C136.917 34.2271 137.994 33.5396 139.489 33.5396C139.729 33.5396 139.96 33.5621 140.185 33.6069ZM143.691 38.0007H149.591C149.561 37.1937 149.292 36.5361 148.783 36.028C148.275 35.5049 147.557 35.2434 146.63 35.2434C145.792 35.2434 145.104 35.5199 144.566 36.0728C144.027 36.6109 143.736 37.2535 143.691 38.0007ZM149.905 40.803L151.722 41.4306C151.408 42.432 150.825 43.2539 149.972 43.8966C149.12 44.5243 148.088 44.8381 146.877 44.8381C145.366 44.8381 144.08 44.3225 143.018 43.2913C141.971 42.2452 141.448 40.8403 141.448 39.0768C141.448 37.4328 141.956 36.0728 142.973 34.9968C143.99 33.9207 145.201 33.3827 146.607 33.3827C148.238 33.3827 149.509 33.8983 150.421 34.9295C151.333 35.9458 151.79 37.3133 151.79 39.032C151.79 39.301 151.775 39.5251 151.745 39.7045H143.624C143.639 40.661 143.953 41.4456 144.566 42.0583C145.194 42.6711 145.964 42.9775 146.877 42.9775C148.417 42.9775 149.427 42.2526 149.905 40.803Z" fill="white"/>
<path opacity="0.6" d="M52.7512 18.856V14.9873H53.6998C54.6912 14.9873 55.5116 15.6108 55.5116 16.9259C55.5116 18.2411 54.6826 18.856 53.6913 18.856H52.7512ZM53.734 19.9491C55.4603 19.9491 56.7337 18.8389 56.7337 16.9259C56.7337 15.013 55.4689 13.8942 53.7425 13.8942H51.5718V19.9491H53.734ZM59.6876 16.9174C59.6876 15.551 60.6448 14.9019 61.5764 14.9019C62.5164 14.9019 63.4736 15.551 63.4736 16.9174C63.4736 18.2838 62.5164 18.9328 61.5764 18.9328C60.6448 18.9328 59.6876 18.2838 59.6876 16.9174ZM58.4655 16.9259C58.4655 18.8731 59.9355 20.0772 61.5764 20.0772C63.2258 20.0772 64.6957 18.8731 64.6957 16.9259C64.6957 14.9703 63.2258 13.7661 61.5764 13.7661C59.9355 13.7661 58.4655 14.9703 58.4655 16.9259ZM72.2694 18.0788L70.9191 13.8942H69.697L68.3553 18.0618L67.2442 13.8942H65.9965L67.6801 19.9491H68.9108L70.2953 15.6364L71.6798 19.9491H72.8933L74.5684 13.8942H73.3634L72.2694 18.0788ZM81.6048 19.9491V13.8942H80.4255V17.8995L77.9043 13.8942H76.4344V19.9491H77.6137V15.6535L80.3656 19.9491H81.6048ZM87.9343 19.9491V18.8218H85.2337V13.8942H84.0543V19.9491H87.9343ZM90.5676 16.9174C90.5676 15.551 91.5248 14.9019 92.4564 14.9019C93.3964 14.9019 94.3536 15.551 94.3536 16.9174C94.3536 18.2838 93.3964 18.9328 92.4564 18.9328C91.5248 18.9328 90.5676 18.2838 90.5676 16.9174ZM89.3455 16.9259C89.3455 18.8731 90.8155 20.0772 92.4564 20.0772C94.1058 20.0772 95.5757 18.8731 95.5757 16.9259C95.5757 14.9703 94.1058 13.7661 92.4564 13.7661C90.8155 13.7661 89.3455 14.9703 89.3455 16.9259ZM101.485 19.9491H102.767L100.46 13.8942H99.0922L96.7676 19.9491H98.0154L98.5196 18.5656H100.981L101.485 19.9491ZM99.7503 15.2008L100.588 17.4896H98.9127L99.7503 15.2008ZM105.789 18.856V14.9873H106.738C107.729 14.9873 108.55 15.6108 108.55 16.9259C108.55 18.2411 107.721 18.856 106.729 18.856H105.789ZM106.772 19.9491C108.498 19.9491 109.772 18.8389 109.772 16.9259C109.772 15.013 108.507 13.8942 106.781 13.8942H104.61V19.9491H106.772ZM115.906 16.9174C115.906 15.551 116.863 14.9019 117.795 14.9019C118.735 14.9019 119.692 15.551 119.692 16.9174C119.692 18.2838 118.735 18.9328 117.795 18.9328C116.863 18.9328 115.906 18.2838 115.906 16.9174ZM114.684 16.9259C114.684 18.8731 116.154 20.0772 117.795 20.0772C119.444 20.0772 120.914 18.8731 120.914 16.9259C120.914 14.9703 119.444 13.7661 117.795 13.7661C116.154 13.7661 114.684 14.9703 114.684 16.9259ZM128.175 19.9491V13.8942H126.996V17.8995L124.475 13.8942H123.005V19.9491H124.184V15.6535L126.936 19.9491H128.175ZM138.266 15.013V13.8942H133.249V15.013H135.164V19.9491H136.352V15.013H138.266ZM145.173 19.9491V13.8942H143.985V16.3281H141.344V13.8942H140.164V19.9491H141.344V17.4383H143.985V19.9491H145.173ZM151.42 19.9491V18.8389H148.805V17.4383H151.172V16.3879H148.805V15.0044H151.42V13.8942H147.625V19.9491H151.42Z" fill="white"/>
<path d="M36.8569 38.115C36.1632 39.6502 35.832 40.3354 34.9387 41.6918C33.6942 43.586 31.9381 45.9451 29.7622 45.9651C27.8293 45.9831 27.3326 44.7081 24.7085 44.7235C22.0846 44.7389 21.5378 45.9878 19.6048 45.9698C17.4288 45.9505 15.7664 43.8201 14.5204 41.9246C11.0378 36.6271 10.674 30.4109 12.8219 27.1063C14.3482 24.7564 16.7572 23.3834 19.0213 23.3834C21.3268 23.3834 22.7763 24.6463 24.6832 24.6463C26.5326 24.6463 27.659 23.3813 30.325 23.3813C32.3401 23.3813 34.4753 24.4776 35.997 26.3716C31.0114 29.1012 31.822 36.2128 36.8569 38.115Z" fill="white"/>
<path d="M28.5837 20.0666C29.5525 18.8242 30.2869 17.0716 30.0198 15.2788C28.4375 15.3869 26.588 16.3931 25.5077 17.7041C24.5269 18.8937 23.717 20.6584 24.0321 22.3737C25.7581 22.4278 27.5455 21.3969 28.5837 20.0666Z" fill="white"/>
</svg>
