<svg width="185" height="62" viewBox="0 0 185 62" fill="none" xmlns="http://www.w3.org/2000/svg">
<rect x="0.354614" width="184.645" height="61.2482" rx="3" fill="black"/>
<path d="M67.7838 44.5019H66.0109L65.8089 42.2601C65.4199 42.9625 64.7841 43.5678 63.9014 44.0759C63.0187 44.5841 61.9565 44.8381 60.7147 44.8381C59.3533 44.8381 58.0965 44.5318 56.9446 43.919C55.7926 43.2913 54.8425 42.3348 54.0945 41.0495C53.3614 39.7643 52.9949 38.2623 52.9949 36.5436C52.9949 34.8249 53.3839 33.3229 54.1618 32.0376C54.9398 30.7524 55.9123 29.8034 57.0792 29.1906C58.2611 28.5779 59.5253 28.2715 60.8718 28.2715C62.5774 28.2715 64.0585 28.7124 65.3152 29.5941C66.5869 30.4609 67.4546 31.6192 67.9184 33.0689L65.9211 33.9207C65.5621 32.77 64.9337 31.8807 64.036 31.253C63.1533 30.6104 62.0986 30.2891 60.8718 30.2891C59.3308 30.2891 58.0068 30.8346 56.8997 31.9256C55.7926 33.0166 55.239 34.5559 55.239 36.5436C55.239 38.5462 55.7776 40.1005 56.8548 41.2065C57.9469 42.2975 59.256 42.843 60.782 42.843C61.6198 42.843 62.3604 42.7085 63.0037 42.4394C63.662 42.1704 64.1707 41.8192 64.5297 41.3858C64.9038 40.9375 65.1806 40.4891 65.3601 40.0408C65.5546 39.5924 65.6668 39.144 65.6967 38.6957H60.1761V36.7229H67.7838V44.5019ZM73.1618 41.9463C73.8201 42.6188 74.6205 42.955 75.563 42.955C76.5055 42.955 77.2985 42.6188 77.9418 41.9463C78.6001 41.2588 78.9292 40.3098 78.9292 39.0992C78.9292 37.9036 78.6001 36.9695 77.9418 36.297C77.2985 35.6095 76.5055 35.2658 75.563 35.2658C74.6205 35.2658 73.8201 35.6095 73.1618 36.297C72.5185 36.9695 72.1968 37.9036 72.1968 39.0992C72.1968 40.3098 72.5185 41.2588 73.1618 41.9463ZM71.5909 35.0192C72.6382 33.9282 73.9622 33.3827 75.563 33.3827C77.1638 33.3827 78.4804 33.9282 79.5127 35.0192C80.56 36.0952 81.0836 37.4552 81.0836 39.0992C81.0836 40.7581 80.5674 42.1331 79.5351 43.2241C78.5028 44.3001 77.1788 44.8381 75.563 44.8381C73.9472 44.8381 72.6232 44.3001 71.5909 43.2241C70.5586 42.1331 70.0424 40.7581 70.0424 39.0992C70.0424 37.4552 70.5586 36.0952 71.5909 35.0192ZM86.0042 41.9463C86.6625 42.6188 87.4629 42.955 88.4055 42.955C89.348 42.955 90.1409 42.6188 90.7843 41.9463C91.4425 41.2588 91.7717 40.3098 91.7717 39.0992C91.7717 37.9036 91.4425 36.9695 90.7843 36.297C90.1409 35.6095 89.348 35.2658 88.4055 35.2658C87.4629 35.2658 86.6625 35.6095 86.0042 36.297C85.3609 36.9695 85.0393 37.9036 85.0393 39.0992C85.0393 40.3098 85.3609 41.2588 86.0042 41.9463ZM84.4333 35.0192C85.4806 33.9282 86.8047 33.3827 88.4055 33.3827C90.0063 33.3827 91.3229 33.9282 92.3552 35.0192C93.4024 36.0952 93.9261 37.4552 93.9261 39.0992C93.9261 40.7581 93.4099 42.1331 92.3776 43.2241C91.3453 44.3001 90.0213 44.8381 88.4055 44.8381C86.7897 44.8381 85.4656 44.3001 84.4333 43.2241C83.401 42.1331 82.8849 40.7581 82.8849 39.0992C82.8849 37.4552 83.401 36.0952 84.4333 35.0192ZM95.8396 45.0847L97.8817 44.614C97.9565 45.3762 98.2632 46.0038 98.8018 46.497C99.3404 47.0052 100.014 47.2592 100.822 47.2592C103.021 47.2592 104.12 46.0935 104.12 43.7621V42.2153C103.851 42.7383 103.425 43.1643 102.841 43.4931C102.273 43.8219 101.6 43.9863 100.822 43.9863C99.3853 43.9863 98.1959 43.5005 97.2534 42.5291C96.3258 41.5427 95.862 40.2873 95.862 38.7629C95.862 37.2834 96.3258 36.0429 97.2534 35.0416C98.181 34.0253 99.3703 33.5172 100.822 33.5172C102.467 33.5172 103.574 34.0851 104.143 35.221V33.719H106.23V43.6948C106.23 44.4122 106.133 45.0773 105.938 45.69C105.759 46.3177 105.467 46.8931 105.063 47.4162C104.659 47.9392 104.091 48.3502 103.357 48.6491C102.639 48.948 101.794 49.0975 100.822 49.0975C99.49 49.0975 98.3605 48.7164 97.4329 47.9542C96.5053 47.2069 95.9742 46.2504 95.8396 45.0847ZM101.136 42.2153C102.048 42.2153 102.789 41.9014 103.357 41.2737C103.926 40.6311 104.21 39.7942 104.21 38.7629C104.21 37.7317 103.926 36.9023 103.357 36.2746C102.789 35.6319 102.048 35.3106 101.136 35.3106C100.208 35.3106 99.4526 35.6245 98.8692 36.2522C98.3006 36.8799 98.0164 37.7168 98.0164 38.7629C98.0164 39.824 98.2932 40.6684 98.8467 41.2961C99.4152 41.9089 100.178 42.2153 101.136 42.2153ZM111.708 44.5019H109.598V28.2715H111.708V44.5019ZM116.665 38.0007H122.567C122.538 37.1937 122.268 36.5361 121.76 36.028C121.251 35.5049 120.533 35.2434 119.605 35.2434C118.767 35.2434 118.079 35.5199 117.541 36.0728C117.002 36.6109 116.71 37.2535 116.665 38.0007ZM122.882 40.803L124.699 41.4306C124.385 42.432 123.802 43.2539 122.949 43.8966C122.096 44.5243 121.064 44.8381 119.852 44.8381C118.341 44.8381 117.054 44.3225 115.992 43.2913C114.945 42.2452 114.421 40.8403 114.421 39.0768C114.421 37.4328 114.93 36.0728 115.947 34.9968C116.965 33.9207 118.176 33.3827 119.583 33.3827C121.214 33.3827 122.485 33.8983 123.398 34.9295C124.31 35.9458 124.767 37.3133 124.767 39.032C124.767 39.301 124.752 39.5251 124.722 39.7045H116.598C116.613 40.661 116.927 41.4456 117.541 42.0583C118.169 42.6711 118.939 42.9775 119.852 42.9775C121.393 42.9775 122.403 42.2526 122.882 40.803ZM135.494 36.028H138.68C139.623 36.028 140.371 35.7889 140.925 35.3106C141.478 34.8174 141.755 34.1599 141.755 33.3379C141.755 32.5009 141.478 31.8359 140.925 31.3427C140.371 30.8346 139.623 30.5805 138.68 30.5805H135.494V36.028ZM139.084 38.0007H135.494V44.5019H133.294V28.6077H139.084C140.536 28.6077 141.717 29.0561 142.63 29.9528C143.543 30.8495 143.999 31.9704 143.999 33.3155C143.999 34.6755 143.543 35.7963 142.63 36.6781C141.717 37.5599 140.536 38.0007 139.084 38.0007ZM148.351 44.5019H146.241V28.2715H148.351V44.5019ZM151.266 41.61C151.266 40.6834 151.565 39.9436 152.163 39.3906C152.762 38.8227 153.555 38.4715 154.542 38.337L157.46 37.9111C158.013 37.8364 158.29 37.5673 158.29 37.104C158.29 36.5361 158.095 36.0728 157.706 35.7141C157.317 35.3555 156.734 35.1761 155.956 35.1761C155.238 35.1761 154.669 35.3779 154.25 35.7814C153.832 36.17 153.585 36.693 153.51 37.3506L151.49 36.8799C151.595 35.8487 152.066 35.0117 152.904 34.3691C153.742 33.7115 154.744 33.3827 155.911 33.3827C157.437 33.3827 158.567 33.7563 159.3 34.5036C160.033 35.2359 160.399 36.1774 160.399 37.3282V42.7309C160.399 43.3735 160.444 43.9638 160.534 44.5019H158.469C158.395 44.0535 158.357 43.5678 158.357 43.0447C158.058 43.523 157.617 43.9414 157.033 44.3001C156.465 44.6588 155.747 44.8381 154.879 44.8381C153.817 44.8381 152.949 44.5243 152.276 43.8966C151.602 43.2539 151.266 42.4917 151.266 41.61ZM155.171 43.0671C156.113 43.0671 156.869 42.8131 157.437 42.3049C158.006 41.7968 158.29 40.9898 158.29 39.8838V39.3906L154.991 39.8838C154.512 39.9586 154.131 40.1304 153.847 40.3994C153.562 40.6684 153.42 41.0346 153.42 41.4979C153.42 41.9164 153.577 42.2825 153.891 42.5964C154.221 42.9102 154.647 43.0671 155.171 43.0671ZM166.16 49.0078H163.849L166.542 43.3137L161.897 33.719H164.32L167.686 41.1616L170.918 33.719H173.185L166.16 49.0078Z" fill="white"/>
<path opacity="0.6" d="M59.2346 19.9491V16.7978H56.2082V17.8226H58.1232C58.0548 18.2496 57.6188 19.0012 56.4988 19.0012C55.4815 19.0012 54.5838 18.2923 54.5838 16.9259C54.5838 15.4912 55.5755 14.8678 56.4903 14.8678C57.4734 14.8678 57.9778 15.4912 58.1317 16.0292L59.2602 15.6278C58.961 14.697 58.0804 13.7661 56.4903 13.7661C54.8489 13.7661 53.387 14.9703 53.387 16.9259C53.387 18.8816 54.7805 20.0772 56.4133 20.0772C57.3281 20.0772 57.9265 19.6673 58.2001 19.2574L58.2771 19.9491H59.2346ZM65.8238 19.9491V18.8389H63.2077V17.4383H65.5758V16.3879H63.2077V15.0044H65.8238V13.8942H62.028V19.9491H65.8238ZM73.1696 15.013V13.8942H68.1513V15.013H70.0663V19.9491H71.2546V15.013H73.1696ZM80.5151 19.9491V13.8942H79.3182V19.9491H80.5151ZM87.9636 15.013V13.8942H82.9453V15.013H84.8603V19.9491H86.0486V15.013H87.9636ZM94.9756 16.9174C94.9756 15.551 95.9331 14.9019 96.8649 14.9019C97.8053 14.9019 98.7628 15.551 98.7628 16.9174C98.7628 18.2838 97.8053 18.9328 96.8649 18.9328C95.9331 18.9328 94.9756 18.2838 94.9756 16.9174ZM93.7531 16.9259C93.7531 18.8731 95.2235 20.0772 96.8649 20.0772C98.5149 20.0772 99.9854 18.8731 99.9854 16.9259C99.9854 14.9703 98.5149 13.7661 96.8649 13.7661C95.2235 13.7661 93.7531 14.9703 93.7531 16.9259ZM107.784 19.9491V13.8942H106.604V17.8995L104.082 13.8942H102.611V19.9491H103.791V15.6535L106.544 19.9491H107.784Z" fill="white"/>
<path d="M18.9197 44.0649C18.2868 44.4735 17.5266 44.5971 16.8134 44.4288L29.3454 31.9102L33.4069 35.9674L18.9197 44.0649Z" fill="white"/>
<path d="M15.2581 43.4114C14.9086 42.9473 14.7074 42.3773 14.7074 41.7744V19.4749C14.7074 18.872 14.9086 18.302 15.2581 17.8379L28.0584 30.6246L15.2581 43.4114Z" fill="white"/>
<path d="M38.7081 33.0045L35.0577 35.0447L30.6326 30.6243L35.058 26.2036L38.7087 28.244C39.5833 28.7335 40.1054 29.6233 40.1054 30.6243C40.1054 31.6253 39.5833 32.5149 38.7081 33.0045Z" fill="white"/>
<path d="M29.3454 29.3393L16.8142 16.8214C17.0196 16.773 17.2287 16.7471 17.4378 16.7471C17.9546 16.7471 18.4694 16.8939 18.9199 17.1845L33.4072 25.2819L29.3454 29.3393Z" fill="white"/>
</svg>
